<svg id="Layer_1" data-name="Layer 1" xmlns="http://www.w3.org/2000/svg" viewBox="0 0 267.67 243.64"><title>favicon</title><polyline points="267.67 99.1 214.99 99.1 205.12 144.21 247.59 144.21 247.59 186.35 196.23 186.35 184.05 243.64 140.92 243.64 153.1 186.35 92.52 186.35 80.34 243.64 37.2 243.64 49.38 186.35 0 186.35 0 144.21 58.28 144.21 68.15 99.1 20.08 99.1 20.08 56.96 77.04 56.96 89.22 0 132.36 0 120.17 56.96 180.75 56.96 192.94 0 236.07 0 223.88 56.96 267.67 56.96"/><polygon points="171.86 99.1 111.28 99.1 101.41 144.21 161.99 144.21 171.86 99.1"/></svg>