<svg id="Layer_1" data-name="Layer 1" xmlns="http://www.w3.org/2000/svg"><title>logo</title><path d="M23.51,10.84l-1.08,4.93h4.64v4.61H21.46l-1.33,6.26H15.41l1.33-6.26H10.12L8.78,26.64H4.07L5.4,20.38H0V15.77H6.37l1.08-4.93H2.2V6.23H8.42L9.76,0h4.72L13.14,6.23h6.62L21.1,0h4.72L24.48,6.23h4.79v4.61Zm-4.72,0H12.17l-1.08,4.93h6.62Z"/><path d="M48.13,1.22v4H37.44v6.8H46v3.89H37.44V26.64H32.36V1.22Z"/><path d="M67,21.53H56.84L55,26.64H49.68L59,1.51h5.8l9.32,25.13H68.8Zm-1.37-3.85L61.92,6.95,58.18,17.68Z"/><path d="M96.26,3.42a11.58,11.58,0,0,1,4.14,6.66H95.08A7,7,0,0,0,92.5,6.84a7.28,7.28,0,0,0-4.19-1.19,6.63,6.63,0,0,0-6.16,3.89,10,10,0,0,0-.9,4.39,9.94,9.94,0,0,0,.9,4.36,6.63,6.63,0,0,0,6.16,3.89A7.28,7.28,0,0,0,92.5,21a7,7,0,0,0,2.57-3.24h5.33a11.58,11.58,0,0,1-4.14,6.66A13.7,13.7,0,0,1,82,25.22a11.15,11.15,0,0,1-4.32-4.59,14.33,14.33,0,0,1-1.53-6.7A14.41,14.41,0,0,1,77.63,7.2a11.19,11.19,0,0,1,4.3-4.59,13.73,13.73,0,0,1,14.33.81Z"/><path d="M109.29,5.26v6.59h9v3.89h-9v6.84h10.08v4.07H104.22V1.22h15.16v4Z"/><path d="M141,15.71a6.19,6.19,0,0,1,1.39,4,6.34,6.34,0,0,1-2.14,5.06q-2.14,1.85-6.21,1.85H123.12V1.22h10.69a9.14,9.14,0,0,1,5.92,1.69,5.79,5.79,0,0,1,2.07,4.75,5.92,5.92,0,0,1-1.24,3.89,5.77,5.77,0,0,1-3.26,2A6.17,6.17,0,0,1,141,15.71Zm-12.8-3.83h4.57a4.35,4.35,0,0,0,2.9-.85,3,3,0,0,0,1-2.43,3.1,3.1,0,0,0-1-2.45,4.4,4.4,0,0,0-3-.86h-4.5Zm7.92,9.74A3.13,3.13,0,0,0,137.19,19a3.21,3.21,0,0,0-1.1-2.61,4.73,4.73,0,0,0-3.11-.92h-4.79v7H133A4.78,4.78,0,0,0,136.11,21.62Z"/><path d="M164.32,2.52a12,12,0,0,1,4.57,4.63,13.43,13.43,0,0,1,1.67,6.71,13.53,13.53,0,0,1-1.67,6.73,12,12,0,0,1-4.57,4.64,13.44,13.44,0,0,1-12.92,0,12,12,0,0,1-4.57-4.64,13.53,13.53,0,0,1-1.67-6.73,13.43,13.43,0,0,1,1.67-6.71,12,12,0,0,1,4.57-4.63,13.44,13.44,0,0,1,12.92,0Zm-10.39,4a6.89,6.89,0,0,0-2.65,2.9,9.66,9.66,0,0,0-1,4.41,9.66,9.66,0,0,0,1,4.41,6.89,6.89,0,0,0,2.65,2.9,8.14,8.14,0,0,0,7.85,0,6.89,6.89,0,0,0,2.65-2.9,9.67,9.67,0,0,0,1-4.41,9.67,9.67,0,0,0-1-4.41,6.9,6.9,0,0,0-2.65-2.9,8.14,8.14,0,0,0-7.85,0Z"/><path d="M192.76,2.52a12,12,0,0,1,4.57,4.63A13.43,13.43,0,0,1,199,13.86a13.53,13.53,0,0,1-1.67,6.73,12,12,0,0,1-4.57,4.64,13.44,13.44,0,0,1-12.92,0,12,12,0,0,1-4.57-4.64,13.53,13.53,0,0,1-1.67-6.73,13.43,13.43,0,0,1,1.67-6.71,12,12,0,0,1,4.57-4.63,13.44,13.44,0,0,1,12.92,0Zm-10.39,4a6.89,6.89,0,0,0-2.65,2.9,9.66,9.66,0,0,0-1,4.41,9.66,9.66,0,0,0,1,4.41,6.89,6.89,0,0,0,2.65,2.9,8.14,8.14,0,0,0,7.85,0,6.89,6.89,0,0,0,2.65-2.9,9.67,9.67,0,0,0,1-4.41,9.67,9.67,0,0,0-1-4.41,6.9,6.9,0,0,0-2.65-2.9,8.14,8.14,0,0,0-7.85,0Z"/><path d="M212.69,13.72l10.76,12.92h-6.16L207.9,15V26.64h-5.08V1.22h5.08V12.64l9.43-11.41h6.12Z"/><path d="M242.24,23.35a6.54,6.54,0,0,1-2.74,2.57,9.52,9.52,0,0,1-4.5,1,11.26,11.26,0,0,1-4.64-.92,8.08,8.08,0,0,1-3.28-2.57,7.3,7.3,0,0,1-1.4-3.82h4.39a4.5,4.5,0,0,0,1.42,2.84,4.62,4.62,0,0,0,3.33,1.19,4,4,0,0,0,2.9-1,3.47,3.47,0,0,0,1-2.59,3.34,3.34,0,0,0-.76-2.25,5.3,5.3,0,0,0-1.87-1.39q-1.12-.5-3.06-1.15a26.66,26.66,0,0,1-3.87-1.51,7,7,0,0,1-2.54-2.2,6.29,6.29,0,0,1-1-3.78,6.45,6.45,0,0,1,1-3.6,6.55,6.55,0,0,1,2.88-2.39A10.4,10.4,0,0,1,233.82.9,9.46,9.46,0,0,1,240,2.77a7.06,7.06,0,0,1,2.61,4.9h-4.43a4.32,4.32,0,0,0-1.35-2.47,4.23,4.23,0,0,0-3-1,4.15,4.15,0,0,0-2.77.88,3.14,3.14,0,0,0-1,2.54,3.19,3.19,0,0,0,.72,2.14,5,5,0,0,0,1.82,1.33q1.1.49,3,1.13a26.42,26.42,0,0,1,3.94,1.53A7.15,7.15,0,0,1,242.08,16a6.52,6.52,0,0,1,1.06,3.89A7,7,0,0,1,242.24,23.35Z"/><path d="M265.41,2.56a11.84,11.84,0,0,1,4.5,4.63,13.67,13.67,0,0,1,1.64,6.71,13.67,13.67,0,0,1-1.64,6.71,12,12,0,0,1-4.5,4.64,13.1,13.1,0,0,1-12.82,0,12.08,12.08,0,0,1-4.52-4.64,13.55,13.55,0,0,1-1.66-6.71,13.55,13.55,0,0,1,1.66-6.71,12,12,0,0,1,4.52-4.63,13.22,13.22,0,0,1,12.82,0ZM254.66,5.83a7.6,7.6,0,0,0-3,3.2,10.58,10.58,0,0,0-1.06,4.86,10.57,10.57,0,0,0,1.06,4.86,7.6,7.6,0,0,0,3,3.2A8.46,8.46,0,0,0,259,23.08a8.3,8.3,0,0,0,4.3-1.12,7.65,7.65,0,0,0,3-3.2,10.59,10.59,0,0,0,1.06-4.86A10.6,10.6,0,0,0,266.27,9a7.65,7.65,0,0,0-3-3.2A8.3,8.3,0,0,0,259,4.72,8.47,8.47,0,0,0,254.66,5.83Z"/><path d="M292.66,15.73a6.16,6.16,0,0,1,1.42,4,6.32,6.32,0,0,1-2.12,5,9.09,9.09,0,0,1-6.16,1.85H275.69V1.22h9.94a8.86,8.86,0,0,1,5.85,1.71,5.81,5.81,0,0,1,2,4.7,5.85,5.85,0,0,1-1.26,3.91,6.11,6.11,0,0,1-3.31,2A6.29,6.29,0,0,1,292.66,15.73Zm-12.87-3.56h5.08a4.81,4.81,0,0,0,3.29-1,3.56,3.56,0,0,0,1.13-2.81,3.52,3.52,0,0,0-1.13-2.77,5.05,5.05,0,0,0-3.44-1h-4.93Zm8.8,10a3.65,3.65,0,0,0,1.28-3,3.68,3.68,0,0,0-1.3-3,5.52,5.52,0,0,0-3.64-1.08h-5.15v8.1H285A5.52,5.52,0,0,0,288.59,22.19Z"/><path d="M302,4.54v7.7h9.36v3.17H302v7.88h10.44v3.35H297.93V1.22h14.54V4.54Z"/><path d="M329.83,26.64l-6.34-10.15h-2.92V26.64h-4.1V1.22h9q4.35,0,6.61,2.12A7.36,7.36,0,0,1,334.29,9a7.15,7.15,0,0,1-1.67,4.9,8,8,0,0,1-4.84,2.45l6.66,10.33Zm-9.25-13.07h4.54q5,0,5-4.39a4.33,4.33,0,0,0-1.21-3.26,5.23,5.23,0,0,0-3.76-1.17h-4.54Z"/></svg>