<?xml version="1.0" encoding="utf-8"?>
<!-- Generator: Adobe Illustrator 21.1.0, SVG Export Plug-In . SVG Version: 6.00 Build 0)  -->
<svg version="1.1" id="Layer_1" xmlns="http://www.w3.org/2000/svg" xmlns:xlink="http://www.w3.org/1999/xlink" x="0px" y="0px"
	 viewBox="0 0 334.4 26.9" style="enable-background:new 0 0 334.4 26.9;" xml:space="preserve">
<g>
	<path d="M23.5,10.8l-1.1,4.9h4.6v4.6h-5.6l-1.3,6.3h-4.7l1.3-6.3h-6.6l-1.3,6.3H4.1l1.3-6.3H0v-4.6h6.4l1.1-4.9H2.2V6.2h6.2L9.8,0
		h4.7l-1.3,6.2h6.6L21.1,0h4.7l-1.3,6.2h4.8v4.6H23.5z M18.8,10.8h-6.6l-1.1,4.9h6.6L18.8,10.8z"/>
	<path d="M48.1,1.2v4H37.4v6.8H46v3.9h-8.6v10.7h-5.1V1.2H48.1z"/>
	<path d="M67,21.5H56.8L55,26.6h-5.4L59,1.5h5.8l9.3,25.1h-5.4L67,21.5z M65.7,17.7L61.9,6.9l-3.7,10.7H65.7z"/>
	<path d="M96.3,3.4c2.1,1.6,3.5,3.9,4.1,6.7h-5.3c-0.6-1.4-1.4-2.4-2.6-3.2c-1.2-0.8-2.6-1.2-4.2-1.2c-1.3,0-2.6,0.3-3.6,1
		c-1.1,0.7-1.9,1.6-2.5,2.9c-0.6,1.2-0.9,2.7-0.9,4.4c0,1.7,0.3,3.1,0.9,4.4c0.6,1.2,1.4,2.2,2.5,2.9c1.1,0.7,2.3,1,3.6,1
		c1.6,0,3-0.4,4.2-1.2c1.2-0.8,2-1.9,2.6-3.2h5.3c-0.7,2.8-2.1,5-4.1,6.7c-2.1,1.6-4.7,2.4-7.9,2.4c-2.4,0-4.6-0.5-6.4-1.6
		c-1.9-1.1-3.3-2.6-4.3-4.6c-1-2-1.5-4.2-1.5-6.7c0-2.5,0.5-4.8,1.5-6.7c1-2,2.5-3.5,4.3-4.6c1.8-1.1,4-1.6,6.4-1.6
		C91.5,1,94.2,1.8,96.3,3.4z"/>
	<path d="M109.3,5.3v6.6h9v3.9h-9v6.8h10.1v4.1h-15.2V1.2h15.2v4H109.3z"/>
	<path d="M141,15.7c0.9,1.1,1.4,2.5,1.4,4c0,2.1-0.7,3.8-2.1,5.1c-1.4,1.2-3.5,1.9-6.2,1.9h-10.9V1.2h10.7c2.6,0,4.5,0.6,5.9,1.7
		c1.4,1.1,2.1,2.7,2.1,4.8c0,1.6-0.4,2.9-1.2,3.9s-1.9,1.7-3.3,2C138.8,13.8,140.1,14.6,141,15.7z M128.2,11.9h4.6
		c1.3,0,2.2-0.3,2.9-0.8c0.7-0.6,1-1.4,1-2.4c0-1.1-0.3-1.9-1-2.4c-0.6-0.6-1.6-0.9-3-0.9h-4.5V11.9z M136.1,21.6
		c0.7-0.6,1.1-1.4,1.1-2.6c0-1.1-0.4-2-1.1-2.6c-0.7-0.6-1.8-0.9-3.1-0.9h-4.8v7h4.8C134.4,22.5,135.4,22.2,136.1,21.6z"/>
	<path d="M164.3,2.5c1.9,1.1,3.5,2.6,4.6,4.6c1.1,2,1.7,4.2,1.7,6.7s-0.6,4.7-1.7,6.7c-1.1,2-2.6,3.5-4.6,4.6
		c-1.9,1.1-4.1,1.7-6.5,1.7s-4.5-0.6-6.5-1.7c-1.9-1.1-3.5-2.7-4.6-4.6c-1.1-2-1.7-4.2-1.7-6.7s0.6-4.7,1.7-6.7
		c1.1-2,2.6-3.5,4.6-4.6c1.9-1.1,4.1-1.7,6.5-1.7S162.4,1.4,164.3,2.5z M153.9,6.6c-1.1,0.7-2,1.6-2.6,2.9c-0.6,1.3-1,2.7-1,4.4
		c0,1.7,0.3,3.1,1,4.4c0.6,1.3,1.5,2.2,2.6,2.9c1.1,0.7,2.4,1,3.9,1c1.5,0,2.8-0.3,3.9-1c1.1-0.7,2-1.6,2.6-2.9c0.6-1.3,1-2.7,1-4.4
		c0-1.7-0.3-3.2-1-4.4c-0.6-1.3-1.5-2.2-2.6-2.9c-1.1-0.7-2.4-1-3.9-1C156.4,5.5,155.1,5.9,153.9,6.6z"/>
	<path d="M192.8,2.5c1.9,1.1,3.5,2.6,4.6,4.6c1.1,2,1.7,4.2,1.7,6.7s-0.6,4.7-1.7,6.7c-1.1,2-2.6,3.5-4.6,4.6
		c-1.9,1.1-4.1,1.7-6.5,1.7s-4.5-0.6-6.5-1.7c-1.9-1.1-3.5-2.7-4.6-4.6c-1.1-2-1.7-4.2-1.7-6.7s0.6-4.7,1.7-6.7
		c1.1-2,2.6-3.5,4.6-4.6c1.9-1.1,4.1-1.7,6.5-1.7S190.8,1.4,192.8,2.5z M182.4,6.6c-1.1,0.7-2,1.6-2.6,2.9c-0.6,1.3-1,2.7-1,4.4
		c0,1.7,0.3,3.1,1,4.4c0.6,1.3,1.5,2.2,2.6,2.9c1.1,0.7,2.4,1,3.9,1c1.5,0,2.8-0.3,3.9-1c1.1-0.7,2-1.6,2.6-2.9c0.6-1.3,1-2.7,1-4.4
		c0-1.7-0.3-3.2-1-4.4c-0.6-1.3-1.5-2.2-2.6-2.9c-1.1-0.7-2.4-1-3.9-1C184.8,5.5,183.5,5.9,182.4,6.6z"/>
	<path d="M212.7,13.7l10.8,12.9h-6.2L207.9,15v11.6h-5.1V1.2h5.1v11.4l9.4-11.4h6.1L212.7,13.7z"/>
	<path d="M242.2,23.3c-0.6,1.1-1.5,1.9-2.7,2.6c-1.2,0.6-2.7,1-4.5,1c-1.7,0-3.3-0.3-4.6-0.9c-1.4-0.6-2.5-1.5-3.3-2.6
		c-0.8-1.1-1.3-2.4-1.4-3.8h4.4c0.1,1.1,0.6,2.1,1.4,2.8s1.9,1.2,3.3,1.2c1.2,0,2.2-0.3,2.9-1c0.7-0.7,1-1.5,1-2.6
		c0-0.9-0.3-1.7-0.8-2.2c-0.5-0.6-1.1-1-1.9-1.4c-0.7-0.3-1.8-0.7-3.1-1.2c-1.6-0.5-2.9-1-3.9-1.5c-1-0.5-1.8-1.2-2.5-2.2
		c-0.7-1-1-2.2-1-3.8c0-1.4,0.3-2.6,1-3.6c0.7-1,1.6-1.8,2.9-2.4c1.2-0.6,2.7-0.8,4.3-0.8c2.6,0,4.6,0.6,6.2,1.9
		c1.5,1.2,2.4,2.9,2.6,4.9h-4.4c-0.2-1-0.6-1.8-1.4-2.5c-0.7-0.7-1.7-1-3-1c-1.2,0-2.1,0.3-2.8,0.9c-0.7,0.6-1,1.4-1,2.5
		c0,0.9,0.2,1.6,0.7,2.1c0.5,0.6,1.1,1,1.8,1.3c0.7,0.3,1.7,0.7,3,1.1c1.6,0.5,2.9,1,3.9,1.5c1,0.5,1.9,1.3,2.6,2.2
		c0.7,1,1.1,2.3,1.1,3.9C243.1,21.1,242.8,22.3,242.2,23.3z"/>
	<path d="M265.4,2.6c1.9,1.1,3.4,2.6,4.5,4.6c1.1,2,1.6,4.2,1.6,6.7c0,2.5-0.5,4.7-1.6,6.7c-1.1,2-2.6,3.5-4.5,4.6
		c-1.9,1.1-4,1.7-6.4,1.7c-2.4,0-4.5-0.6-6.4-1.7c-1.9-1.1-3.4-2.7-4.5-4.6c-1.1-2-1.7-4.2-1.7-6.7c0-2.5,0.6-4.7,1.7-6.7
		c1.1-2,2.6-3.5,4.5-4.6c1.9-1.1,4-1.7,6.4-1.7C261.4,0.9,263.5,1.5,265.4,2.6z M254.7,5.8c-1.3,0.7-2.3,1.8-3,3.2
		c-0.7,1.4-1.1,3-1.1,4.9c0,1.8,0.4,3.5,1.1,4.9c0.7,1.4,1.7,2.5,3,3.2c1.3,0.7,2.7,1.1,4.4,1.1c1.6,0,3-0.4,4.3-1.1
		c1.3-0.7,2.2-1.8,3-3.2c0.7-1.4,1.1-3,1.1-4.9c0-1.8-0.4-3.5-1.1-4.9c-0.7-1.4-1.7-2.5-3-3.2c-1.3-0.7-2.7-1.1-4.3-1.1
		C257.4,4.7,255.9,5.1,254.7,5.8z"/>
	<path d="M292.7,15.7c0.9,1.2,1.4,2.5,1.4,4c0,2.1-0.7,3.8-2.1,5c-1.4,1.2-3.5,1.9-6.2,1.9h-10.1V1.2h9.9c2.5,0,4.5,0.6,5.8,1.7
		c1.4,1.1,2,2.7,2,4.7c0,1.6-0.4,2.9-1.3,3.9c-0.8,1-1.9,1.7-3.3,2C290.5,13.8,291.7,14.6,292.7,15.7z M279.8,12.2h5.1
		c1.4,0,2.5-0.3,3.3-1c0.8-0.7,1.1-1.6,1.1-2.8c0-1.2-0.4-2.1-1.1-2.8c-0.8-0.7-1.9-1-3.4-1h-4.9V12.2z M288.6,22.2
		c0.9-0.7,1.3-1.7,1.3-3c0-1.3-0.4-2.3-1.3-3c-0.9-0.7-2.1-1.1-3.6-1.1h-5.1v8.1h5.2C286.5,23.3,287.7,22.9,288.6,22.2z"/>
	<path d="M302,4.5v7.7h9.4v3.2H302v7.9h10.4v3.3h-14.5V1.2h14.5v3.3H302z"/>
	<path d="M329.8,26.6l-6.3-10.2h-2.9v10.2h-4.1V1.2h9c2.9,0,5.1,0.7,6.6,2.1c1.5,1.4,2.2,3.3,2.2,5.6c0,2-0.6,3.6-1.7,4.9
		s-2.7,2.1-4.8,2.4l6.7,10.3H329.8z M320.6,13.6h4.5c3.3,0,5-1.5,5-4.4c0-1.4-0.4-2.5-1.2-3.3s-2.1-1.2-3.8-1.2h-4.5V13.6z"/>
</g>
</svg>
